<svg xmlns="http://www.w3.org/2000/svg" width="24" height="23" viewBox="0 0 24 23">
    <path fill="#FF7AA9" stroke="#FF7AA9" stroke-width=".4" d="M6.002 22.418c-.244 0-.488-.076-.695-.226-.387-.28-.567-.762-.462-1.226l1.438-6.334-4.876-4.276c-.359-.313-.496-.809-.349-1.262.147-.453.548-.773 1.022-.817l6.452-.586 2.55-5.97C11.272 1.284 11.7 1 12.176 1s.904.283 1.092.72l2.551 5.971 6.45.586c.476.043.876.364 1.024.817.147.452.01.949-.348 1.262l-4.876 4.275 1.438 6.334c.105.465-.076.947-.462 1.226-.386.28-.9.301-1.306.057l-5.563-3.325-5.563 3.327c-.189.112-.398.168-.61.168zm6.173-4.927c.211 0 .42.057.609.169l5.25 3.14-1.356-5.978c-.097-.426.047-.87.376-1.158l4.604-4.038-6.091-.553c-.439-.04-.816-.315-.988-.72L12.175 2.72 9.768 8.354c-.17.402-.547.677-.985.717l-6.092.554 4.604 4.038c.33.288.474.732.376 1.158L6.315 20.8l5.25-3.14c.189-.111.398-.168.61-.168zM8.487 7.807s0 .005-.006.01l.006-.01zm7.379-.003l.005.01c0-.006 0-.006-.005-.01z"/>
</svg>
