<?xml version="1.0" encoding="UTF-8"?>
<svg width="45px" height="22px" viewBox="0 0 45 22" version="1.1" xmlns="http://www.w3.org/2000/svg" xmlns:xlink="http://www.w3.org/1999/xlink">
    <!-- Generator: Sketch 51.2 (57519) - http://www.bohemiancoding.com/sketch -->
    <title>Group 41</title>
    <desc>Created with Sketch.</desc>
    <defs></defs>
    <g id="White" stroke="none" stroke-width="1" fill="none" fill-rule="evenodd">
        <g id="fanky_desktop_cart" transform="translate(-1715.000000, -2471.000000)" fill="#C8C8C8" fill-rule="nonzero">
            <g id="Group-23" transform="translate(0.000000, 1932.000000)">
                <g id="Group-53" transform="translate(1715.000000, 539.000000)">
                    <g id="Group-41">
                        <path d="M0.547468574,21.7379297 C-0.072577237,21.2064618 -0.249733183,20.1435262 0.458890601,18.0176548 C1.4332483,15.2717376 4.62205533,8.89412358 7.45655047,4.19949101 C5.41925709,4.5538029 3.20480777,4.99669277 2.85049587,4.81953682 C2.14187209,4.5538029 1.4332483,2.6050875 1.25609236,1.98504169 C1.25609236,1.89646371 1.34467033,1.80788574 1.52182628,1.71930777 C3.55911966,1.18783993 18.971687,-1.0266094 34.6499882,0.567794118 C36.5987036,0.92210601 37.3959054,2.25077561 37.3959054,2.33935358 C37.6616393,2.95939939 36.8644375,2.87082142 36.7758595,2.87082142 C21.4518702,1.45357385 13.6570086,3.13655534 10.8225134,3.66802317 C10.7339355,3.66802317 10.7339355,3.66802317 10.7339355,3.66802317 C8.96237601,6.59109628 10.4682016,3.75660115 6.21645885,11.4628848 C7.01366061,11.2857289 7.72228439,11.1971509 8.51948615,11.1971509 C10.2024676,11.1085729 11.0882474,11.8171967 11.3539813,12.7915544 C11.4425593,13.0572883 11.3539813,13.3230222 10.9996694,13.3230222 C7.10223858,13.5001782 5.41925709,13.943068 4.71063331,14.2973799 C2.7619179,17.5747649 2.23045006,19.3463244 1.25609236,21.6493517 C1.16751439,21.8265076 1.07893641,21.9150856 0.990358439,21.9150856 C0.72462452,21.8265076 0.636046547,21.8265076 0.547468574,21.7379297 Z M31.3726032,21.6493517 C31.0182913,21.1178839 30.4868235,20.674994 31.1068693,18.9034345 C31.7269151,16.7775632 36.0672358,8.27407777 37.5730613,6.14820642 C37.8387952,5.8824725 38.1045291,5.8824725 38.2816851,6.23678439 C38.635997,6.8568302 38.8131529,8.00834385 37.8387952,9.86848129 C37.2187494,11.0199949 36.4215477,12.4372425 35.5357679,14.120224 C38.8131529,11.6400407 42.0905379,8.62838966 44.4821432,6.05962845 C44.6592991,5.8824725 44.8364551,5.8824725 44.9250331,6.14820642 C45.102189,6.67967426 45.013611,7.56545399 44.1278313,8.80554561 C42.9763177,10.3113712 39.6989327,13.4116002 36.3329697,15.8032055 C36.9530155,16.7775632 37.5730613,17.8404989 38.0159512,18.9034345 C38.635997,20.3206821 38.3702631,21.2064618 38.0159512,21.6493517 C37.8387952,21.8265076 37.6616393,21.8265076 37.5730613,21.5607737 C36.5987036,19.7006363 35.6243459,17.9290768 34.3842543,16.1575174 C33.4984745,17.8404989 32.6126948,19.7006363 31.8154931,21.6493517 C31.7269151,21.7379297 31.6383371,21.8265076 31.5497591,21.8265076 C31.5497591,21.8265076 31.4611812,21.7379297 31.3726032,21.6493517 Z M27.1208605,21.7379297 C26.4122367,21.2950398 26.0579248,20.763572 25.8807689,19.1691685 C25.7921909,17.6633429 25.8807689,14.6516918 26.4122367,11.1085729 C24.5520993,14.2973799 22.249072,18.6377006 21.1861363,21.6493517 C21.0975583,21.9150856 20.6546685,21.9150856 20.4775125,21.7379297 C20.0346226,21.2950398 19.7688887,20.3206821 20.3003566,18.9034345 C21.5404482,15.5374716 24.8178332,9.60274737 26.7665486,6.23678439 C27.0322825,5.8824725 27.2094385,5.79389453 27.4751724,5.97105047 C28.3609521,6.67967426 28.715264,7.38829804 28.4495301,9.07127953 C28.0066402,11.7286187 27.7409063,14.4745359 27.6523283,17.1318751 C29.3353098,13.2344443 31.992649,8.98270156 33.8527864,6.05962845 C34.0299424,5.79389453 34.3842543,5.79389453 34.5614102,6.14820642 C34.9157221,6.8568302 34.9157221,7.91976588 33.7642085,9.77990331 C32.2583829,12.2600866 29.0695759,18.2833887 27.6523283,21.5607737 C27.5637504,21.7379297 27.4751724,21.8265076 27.3865944,21.8265076 C27.2094385,21.7379297 27.1208605,21.7379297 27.1208605,21.7379297 Z M9.75957777,21.4721958 C9.40526588,21.0293059 9.22810993,20.3206821 9.75957777,18.9034345 C9.93673372,18.4605447 10.1138897,18.0176548 10.3796236,17.5747649 C9.75957777,17.486187 9.6709998,16.7775632 9.58242182,16.6004072 C9.49384385,16.2460953 9.49384385,16.1575174 9.84815574,16.2460953 C10.2024676,16.3346733 10.4682016,16.3346733 10.9110914,16.3346733 C12.8598068,12.9687103 16.4029257,8.00834385 19.0602649,5.79389453 C19.5031548,5.43958263 19.8574667,5.43958263 20.1232006,5.79389453 C20.3889345,6.14820642 20.5660905,6.23678439 20.8318244,6.8568302 C21.0975583,7.47687601 21.0975583,8.00834385 20.8318244,8.71696764 C20.0346226,11.1085729 19.4145768,13.5001782 18.971687,15.9803614 C20.2117786,16.0689394 19.9460447,16.6889852 19.9460447,17.220453 C19.9460447,17.486187 19.8574667,17.6633429 19.6803108,17.5747649 C19.3259989,17.486187 19.0602649,17.397609 18.705953,17.397609 C18.5287971,18.7262786 18.3516412,19.9663702 18.3516412,21.2950398 C18.3516412,21.5607737 18.0859072,21.6493517 17.8201733,21.5607737 C17.1115495,21.1178839 16.7572376,20.674994 16.7572376,19.2577464 C16.7572376,18.6377006 16.7572376,18.1062328 16.8458156,17.486187 C16.4915037,17.309031 13.1255407,17.7519209 12.328339,17.9290768 C11.6197152,19.1691685 10.8225134,20.3206821 10.2910456,21.3836178 C10.2024676,21.5607737 10.1138897,21.6493517 10.0253117,21.6493517 C9.93673372,21.7379297 9.75957777,21.5607737 9.75957777,21.4721958 Z M13.3912747,16.2460953 C16.7572376,15.9803614 17.0229716,15.8032055 17.1115495,15.8917835 C17.4658614,13.4116002 18.0859072,11.0199949 19.0602649,8.62838966 C17.2001275,10.931417 15.2514121,13.3230222 13.3912747,16.2460953 Z" id="Union_1"></path>
                    </g>
                </g>
            </g>
        </g>
    </g>
</svg>